<?xml version="1.0" encoding="UTF-8" standalone="no"?>
<svg
   width="64"
   version="1.1"
   height="64"
   id="svg15"
   sodipodi:docname="folder-Peace.svg"
   inkscape:version="1.2 (dc2aedaf03, 2022-05-15)"
   xmlns:inkscape="http://www.inkscape.org/namespaces/inkscape"
   xmlns:sodipodi="http://sodipodi.sourceforge.net/DTD/sodipodi-0.dtd"
   xmlns:xlink="http://www.w3.org/1999/xlink"
   xmlns="http://www.w3.org/2000/svg"
   xmlns:svg="http://www.w3.org/2000/svg"
   xmlns:rdf="http://www.w3.org/1999/02/22-rdf-syntax-ns#"
   xmlns:cc="http://creativecommons.org/ns#"
   xmlns:dc="http://purl.org/dc/elements/1.1/">
  <style
     id="current-color-scheme"
     type="text/css">
.ColorScheme-Highlight { 
    color:#3daee9;
}
</style>
  <sodipodi:namedview
     pagecolor="#ffffff"
     bordercolor="#666666"
     borderopacity="1"
     objecttolerance="10"
     gridtolerance="10"
     guidetolerance="10"
     inkscape:pageopacity="0"
     inkscape:pageshadow="2"
     inkscape:window-width="1920"
     inkscape:window-height="1000"
     id="namedview17"
     showgrid="true"
     inkscape:zoom="9.8124999"
     inkscape:cx="31.082803"
     inkscape:cy="29.299363"
     inkscape:window-x="0"
     inkscape:window-y="0"
     inkscape:window-maximized="1"
     inkscape:current-layer="layer1"
     inkscape:document-rotation="0"
     inkscape:pagecheckerboard="0"
     inkscape:showpageshadow="2"
     inkscape:deskcolor="#d1d1d1">
    <inkscape:grid
       type="xygrid"
       id="grid850" />
  </sodipodi:namedview>
  <defs
     id="defs5455">
    <linearGradient
       inkscape:collect="always"
       id="linearGradient2776">
      <stop
         style="stop-color:#37c8ab;stop-opacity:1;"
         offset="0"
         id="stop2772" />
      <stop
         style="stop-color:#aa87de;stop-opacity:1;"
         offset="1"
         id="stop2774" />
    </linearGradient>
    <linearGradient
       inkscape:collect="always"
       xlink:href="#linearGradient2776"
       id="linearGradient2778"
       x1="0"
       y1="26"
       x2="52"
       y2="26"
       gradientUnits="userSpaceOnUse" />
    <linearGradient
       inkscape:collect="always"
       xlink:href="#linearGradient2776"
       id="linearGradient2858"
       x1="428.39755"
       y1="521.42352"
       x2="435.00314"
       y2="521.42352"
       gradientUnits="userSpaceOnUse" />
    <linearGradient
       inkscape:collect="always"
       xlink:href="#linearGradient2776"
       id="linearGradient2860"
       x1="420.14066"
       y1="521.42334"
       x2="426.74628"
       y2="521.42334"
       gradientUnits="userSpaceOnUse" />
    <linearGradient
       inkscape:collect="always"
       xlink:href="#linearGradient2776"
       id="linearGradient2862"
       x1="422.93475"
       y1="527.48572"
       x2="426.74628"
       y2="527.48572"
       gradientUnits="userSpaceOnUse" />
    <linearGradient
       inkscape:collect="always"
       xlink:href="#linearGradient2776"
       id="linearGradient2864"
       x1="428.39767"
       y1="527.48572"
       x2="432.20914"
       y2="527.48572"
       gradientUnits="userSpaceOnUse" />
  </defs>
  <metadata
     id="metadata5458">
    <rdf:RDF>
      <cc:Work
         rdf:about="">
        <dc:format>image/svg+xml</dc:format>
        <dc:type
           rdf:resource="http://purl.org/dc/dcmitype/StillImage" />
      </cc:Work>
    </rdf:RDF>
  </metadata>
  <g
     inkscape:label="Capa 1"
     inkscape:groupmode="layer"
     id="layer1"
     transform="translate(-384.57143,-483.798)">
    <g
       transform="matrix(0.74351172,0,0,0.74285356,332.49565,-244.90835)"
       id="g4" />
    <path
       inkscape:connector-curvature="0"
       id="fill"
       d="m 387.57143,492.798 v 45 c 0.10878,1.51131 1,3 3.90646,3 h 49.82407 c 3.26947,0 4.38407,-0.49903 4.26947,-4 v -36 c -1,-2 -8,0 -8,-6 -12,-1 -34,1 -33.92879,-5 h -12.07366 c -1.99755,0 -3.99755,1 -3.99755,3 z"
       style="color:#1e92ff;fill:#4e5a7e;fill-opacity:0.30000001;fill-rule:nonzero;stroke:none;stroke-width:10.5116"
       class="ColorScheme-ButtonFocus"
       sodipodi:nodetypes="cccccccccc" />
    <path
       d="m 442.63027,498.20849 h -3.19931 v -1.18101 c 0,-2.05106 -0.9001,-3.06199 -1.65528,-3.54937 -0.80983,-0.52229 -1.60505,-0.54894 -1.75698,-0.54894 h -28.10856 c -0.60198,0 -1.16772,-0.63461 -1.76652,-1.30666 -0.76217,-0.85546 -1.62604,-1.82451 -2.93742,-1.82451 h -12.54362 c -2.33226,0 -4.09115,1.75533 -4.09115,4.08309 v 43.83382 c 0,2.2516 1.83517,4.08309 4.09115,4.08309 h 51.96769 c 2.25599,0 4.09116,-1.83149 4.09116,-4.08309 v -35.42333 c 0,-2.2516 -1.83517,-4.08309 -4.09116,-4.08309 z m 2.18416,39.50642 c 0,1.20196 -0.97957,2.17926 -2.18416,2.17926 h -51.96769 c -1.20458,0 -2.18415,-0.9773 -2.18415,-2.17926 v -43.83382 c 0,-1.28255 0.8982,-2.17926 2.18415,-2.17926 h 12.54362 c 0.45577,0 0.9694,0.57623 1.51289,1.18609 0.77233,0.86624 1.73346,1.94445 3.19105,1.94445 h 28.09711 c 0.28796,0.008 1.1048,0.13326 1.40483,1.24256 h -43.76115 c -2.43151,0.0501 -3.70284,1.31936 -3.70284,3.8578 l 0.11188,34.90359 h 1.15945 c 0,0 -0.2406,0.002 9.7e-4,0.002 0.37504,0 0.96716,0.0733 1.52019,-0.35884 0.99355,-0.77803 1.0355,-1.78643 1.02661,-2.06249 l -0.005,-28.67681 c 0,-3.80767 0,-3.80767 3.814,-3.80767 l 45.05482,0.1796 c 1.20457,0.005 2.18415,0.97793 2.18415,2.17925 v 35.42333 z"
       id="path2-3-3-2"
       sodipodi:nodetypes="scscsscssssssssscsssssscsccccccsccccsscc"
       style="stroke-width:0.635139;fill-opacity:1;fill:currentColor"
       class="ColorScheme-Highlight" />
    <g
       id="Zoom_1_"
       transform="matrix(0.46153846,0,0,0.46150317,415.57143,510.798)">
      <path
         id="Zoom"
         class="st0"
         d="m 49.1,37.8 v 0 C 51,34.3 52,30.3 52,26 52,11.6 40.4,0 26,0 11.6,0 0,11.6 0,26 0,40.4 11.6,52 26,52 34.6,52 42.2,47.8 47,41.3 v 0 z M 26,44 C 16.1,44 8,35.9 8,26 8,16.1 16.1,8 26,8 c 9.9,0 18,8.1 18,18 0,9.9 -8.1,18 -18,18 z"
         sodipodi:nodetypes="ccssssccccccsssss"
         style="opacity:1;fill:url(#linearGradient2778);fill-opacity:1;enable-background:new" />
    </g>
    <path
       d="m 428.39766,515.41303 v 7.04208 l 4.97897,4.97889 c 1.01702,-1.27127 1.6265,-2.88247 1.6265,-4.63683 0,-3.82476 -2.89006,-6.97309 -6.60559,-7.38385 z"
       id="path70"
       style="fill:url(#linearGradient2858);fill-opacity:1;stroke-width:0.0294882" />
    <path
       d="m 426.74627,515.41303 c -3.71565,0.41087 -6.60561,3.55939 -6.60561,7.38384 0,1.75448 0.60948,3.36566 1.6265,4.63684 l 4.97898,-4.97888 z"
       id="path72"
       style="fill:url(#linearGradient2860);fill-opacity:1;stroke-width:0.0294882" />
    <path
       d="m 426.74627,524.79032 -3.81151,3.81119 c 1.06899,0.855 2.37847,1.42113 3.81151,1.57963 z"
       id="path74"
       style="fill:url(#linearGradient2862);fill-opacity:1;stroke-width:0.0294882" />
    <path
       d="m 428.39766,524.79032 v 5.39082 c 1.43311,-0.1585 2.7425,-0.72462 3.81148,-1.57963 z"
       id="path76"
       style="fill:url(#linearGradient2864);fill-opacity:1;stroke-width:0.0294882" />
    <path
       id="Zoom-s-3"
       class="st1"
       d="m 428.84298,534.798 c 2.79187,-0.28422 5.4374,-1.55602 7.37102,-3.61519 2.03303,-2.08685 3.2172,-5.0219 3.33065,-7.92422 h -1.82529 c -0.13126,2.60735 -1.27137,5.22401 -3.35974,7.11201 -1.57486,1.42374 -3.48033,2.27538 -5.48666,2.53379 z"
       sodipodi:nodetypes="ccccccc"
       style="fill:#f0f0f0;stroke-width:0.461526;fill-opacity:1" />
  </g>
</svg>
