<?xml version="1.0" encoding="UTF-8" standalone="no"?>
<svg
   viewBox="0 0 16 16"
   version="1.1"
   id="svg6"
   sodipodi:docname="folder-bluish-plasma.svg"
   inkscape:version="1.2.2 (b0a8486541, 2022-12-01)"
   xmlns:inkscape="http://www.inkscape.org/namespaces/inkscape"
   xmlns:sodipodi="http://sodipodi.sourceforge.net/DTD/sodipodi-0.dtd"
   xmlns="http://www.w3.org/2000/svg"
   xmlns:svg="http://www.w3.org/2000/svg">
  <sodipodi:namedview
     id="namedview8"
     pagecolor="#cccccc"
     bordercolor="#666666"
     borderopacity="1.0"
     inkscape:pageshadow="2"
     inkscape:pageopacity="0"
     inkscape:pagecheckerboard="0"
     showgrid="false"
     inkscape:zoom="19.625"
     inkscape:cx="-13.146497"
     inkscape:cy="6.6496815"
     inkscape:window-width="1920"
     inkscape:window-height="998"
     inkscape:window-x="0"
     inkscape:window-y="0"
     inkscape:window-maximized="1"
     inkscape:current-layer="svg6"
     inkscape:showpageshadow="2"
     inkscape:deskcolor="#d1d1d1" />
  <defs
     id="defs3051">
    <style
       type="text/css"
       id="current-color-scheme">.ColorScheme-Text { color:#ffffff; }
</style>
  </defs>
  <path
     fill-rule="evenodd"
     clip-rule="evenodd"
     d="m 12.634254,6.5124297 c 0.0059,0 0.01019,-0.00274 0.01589,-0.00378 0.75713,0.074884 1.349841,0.7137439 1.349841,1.4911955 0,0.7790174 -0.59344,1.4191689 -1.353519,1.4927639 -0.0011,0.00364 -0.0037,0.0066 -0.0051,0.010207 -0.0059,-3.743e-4 -0.01,-0.00338 -0.01589,-0.00338 -0.191105,0 -0.404062,0.034037 -0.483166,0.2251864 -0.07907,0.1915334 0.03299,0.3585235 0.179446,0.5046335 0.0056,0.0053 0.01203,0.0073 0.01745,0.01179 0.478972,0.588872 0.451856,1.452405 -0.09705,2.00136 -0.548392,0.548559 -1.412654,0.576403 -2.001708,0.09778 -0.0089,0.0048 -0.01836,0.0066 -0.0271,0.01066 -0.0039,-0.0047 -0.0061,-0.01021 -0.01,-0.01497 -0.135673,-0.135134 -0.3094471,-0.261844 -0.5007941,-0.182008 -0.191669,0.0791 -0.229758,0.276118 -0.229758,0.483378 0,0.01859 0.0059,0.03554 0.0111,0.05236 -0.09428,0.738351 -0.720338,1.310371 -1.484444,1.310371 -0.777823,0 -1.417039,-0.592175 -1.492675,-1.350215 -0.008,-0.0025 -0.01537,-0.0077 -0.02379,-0.01066 3.75e-4,-0.0036 0.0022,-0.007 0.0022,-0.01066 0,-0.191126 -0.03385,-0.403549 -0.225049,-0.482653 -0.191352,-0.07948 -0.358522,0.03297 -0.504799,0.179446 -0.0089,0.0089 -0.01312,0.01973 -0.01933,0.03003 C 5.1477499,12.816052 4.298515,12.784204 3.75727,12.242604 3.207611,11.692906 3.180677,10.827541 3.66189,10.238293 3.65589,10.228083 3.65419,10.216983 3.6496,10.206043 3.784759,10.070908 3.910906,9.8969635 3.831632,9.7058067 3.752132,9.5147043 3.554771,9.4758669 3.347676,9.4758669 c -0.01364,0 -0.02547,0.00525 -0.03822,0.00839 C 2.571831,9.3905319 2,8.7631968 2,7.9999297 2,7.2191749 2.59621,6.578859 3.358256,6.5072593 c 0.0027,-0.00674 0.0059,-0.01281 0.0092,-0.019369 0.188424,-0.00145 0.394429,-0.036973 0.47208,-0.224824 C 3.918576,6.0722046 3.807346,5.9059582 3.661176,5.7598495 3.181236,5.171325 3.208159,4.3066874 3.757466,3.757381 c 0.551303,-0.5517 1.4219879,-0.577154 2.0110419,-0.0899 0.0059,-0.003 0.01266,-0.0045 0.01901,-0.0069 0.134045,0.132027 0.304689,0.251769 0.492006,0.17433 0.191348,-0.0793 0.229803,-0.276846 0.229803,-0.483778 0,-6.91e-4 -3.76e-4,-0.0016 -3.76e-4,-0.0022 C 6.5849109,2.591421 7.2224699,2 7.9999199,2 c 0.782044,0 1.423112,0.598033 1.493046,1.361561 0.002,5.29e-4 0.0027,0.0022 0.0045,0.0023 0,0.04489 0.0024,0.091 0.008,0.136219 h -0.006 c 0,0.206907 -0.16772,0.37519 -0.375001,0.37519 -0.206729,0 -0.374626,-0.168282 -0.374626,-0.37519 0,-0.41438 -0.336002,-0.750005 -0.75019,-0.750005 -0.414378,0 -0.750005,0.335625 -0.750005,0.750005 v 0.375186 l -0.0024,0.0031 c 0.0064,0.2479227 -0.15087,0.4793695 -0.399705,0.5533387 -0.006,0.00181 -0.01252,0.00181 -0.01839,0.00369 l -0.0048,0.00582 c -0.175592,0.058961 -0.34589,0.1292728 -0.50923,0.2120315 l -0.01094,-0.00168 c -0.0061,0.00342 -0.01153,0.00861 -0.01786,0.012269 -0.242665,0.1313024 -0.53854,0.065562 -0.70516,-0.1424505 L 5.3471649,4.2877606 c -0.293157,-0.2929702 -0.7681179,-0.2929702 -1.0607389,0 -0.292758,0.2929704 -0.292758,0.7679558 0,1.0605508 l 0.265129,0.2653139 0.0022,0.011186 c 0.175409,0.1713753 0.225959,0.4423853 0.103454,0.6686971 -0.0022,0.00353 -0.0052,0.00582 -0.0064,0.00953 l 0.0022,0.012657 C 4.571339,6.4792089 4.499934,6.6494799 4.441357,6.8252639 l -0.0114,0.0088 c -0.0022,0.00661 -0.0027,0.013036 -0.0045,0.01977 -0.07966,0.2677007 -0.34092,0.4295628 -0.608622,0.396232 H 3.499622 c -0.414383,0 -0.750172,0.3360018 -0.750172,0.7500024 0,0.4139085 0.335789,0.7500989 0.750172,0.7500989 h 0.374621 l 0.01113,0.00839 c 0.242623,-3.766e-4 0.467274,0.155272 0.540138,0.3995398 0.0012,0.00191 0.0012,0.00428 0.0018,0.0066 l 0.01383,0.010207 c 0.05901,0.1754099 0.129646,0.3457037 0.21203,0.5090174 l -0.0034,0.022726 c 0.003,0.00428 0.006,0.00774 0.008,0.012021 0.131301,0.2424376 0.06551,0.5383366 -0.142461,0.7049566 l -0.227783,0.228144 c -0.292756,0.292595 -0.292756,0.76758 0,1.06055 0.292598,0.292595 0.7675809,0.292595 1.0607409,0 l 0.265314,-0.265124 0.01112,-0.0016 c 0.170987,-0.170648 0.439054,-0.218633 0.662624,-0.09778 0.002,6.22e-4 0.0024,0.0019 0.0045,0.0025 l 0.02418,-0.0036 c 0.163525,0.08166 0.333797,0.153072 0.509579,0.211671 l 0.01498,0.01973 c 0.0024,6.21e-4 0.006,6.21e-4 0.0074,0.0016 0.244993,0.07252 0.400431,0.298101 0.399703,0.541618 l 0.0024,0.0025 v 0.375329 c 0,0.414192 0.335625,0.750004 0.750006,0.750004 0.414192,0 0.750192,-0.335812 0.750192,-0.750004 v -0.375134 l 0.0024,-0.0025 c -0.0011,-0.243541 0.154752,-0.468751 0.399729,-0.54162 0.003,-9.09e-4 0.0059,-9.09e-4 0.0077,-0.0016 l 0.01498,-0.01928 c 0.175412,-0.05896 0.345517,-0.129284 0.508999,-0.212034 l 0.0247,0.0036 c 0.0019,-6.22e-4 0.0024,-0.0019 0.0041,-0.0025 0.2235748,-0.120848 0.4916481,-0.07287 0.6626521,0.09778 l 0.01109,0.0016 0.265315,0.265126 c 0.292595,0.292596 0.767583,0.292596 1.060738,0 0.292784,-0.292969 0.292784,-0.767956 0,-1.060552 L 11.484331,10.424034 C 11.276309,10.257423 11.210767,9.961519 11.34205,9.7190819 c 0.0022,-0.00428 0.0059,-0.00812 0.0077,-0.012022 l -0.0038,-0.024878 c 0.08168,-0.1632997 0.153639,-0.3314074 0.211671,-0.5064387 l 0.01456,-0.010885 c 4.72e-4,-0.00191 0.0011,-0.00411 0.0015,-0.00618 0.0727,-0.2442699 0.297185,-0.3995419 0.539788,-0.3995419 l 0.01113,-0.00839 h 0.375142 c 0.414377,0 0.750003,-0.3361853 0.750003,-0.7500972 0,-0.4140025 -0.335626,-0.7500044 -0.750003,-0.7500044 h -0.317432 c -0.267985,0.03309 -0.528892,-0.128794 -0.608365,-0.3964991 -0.0021,-0.00674 -0.0023,-0.013535 -0.0044,-0.020344 l -0.01113,-0.00825 c -0.0585,-0.1754551 -0.129352,-0.3457543 -0.21158,-0.5087157 l 0.0021,-0.013173 c -0.0021,-0.00379 -0.005,-0.00641 -0.0064,-0.00989 -0.122503,-0.226314 -0.07194,-0.4973225 0.103271,-0.6686967 l 0.0018,-0.011182 0.265313,-0.2653148 c 0.292784,-0.2925952 0.292784,-0.767582 0,-1.0605522 -0.139125,-0.1387763 -0.342733,-0.2180657 -0.524911,-0.2252161 -0.207275,0 -0.375193,-0.1677201 -0.375193,-0.3750011 0,-0.207281 0.167902,-0.375002 0.375193,-0.375002 0.02693,0 0.05295,0.0027 0.07839,0.0082 0.352666,0.02306 0.708262,0.167906 0.976693,0.436711 0.550927,0.5507836 0.577101,1.4194282 0.09229,2.0084842 0.0021,0.00353 0.0024,0.00783 0.0046,0.011546 -0.002,0.00145 -0.0044,0.00179 -0.006,0.0041 -0.135292,0.135493 -0.261846,0.3094448 -0.182552,0.5011679 0.07901,0.1913176 0.276587,0.2297814 0.483472,0.2297814 z M 10.062562,4.6249758 c -0.2072691,0 -0.3749991,-0.1680937 -0.3749991,-0.3751896 0,-0.2067181 0.167721,-0.3746262 0.3749991,-0.3746262 0.20673,0 0.374628,0.1679079 0.374628,0.3746262 0,0.2070949 -0.167905,0.3751896 -0.374628,0.3751896 z m -3.7752111,6.7226312 0.0282,-6.21e-4 v 0 z m 0.537775,0.210945 v 0 l 0.02267,0.02154 -0.02267,-0.02154 v 0 0 0 0 0 l 0.02267,0.02154 z"
     id="path2-3"
     sodipodi:nodetypes="scsccsccccccccscsccscccccccscsccccccccscsccccsssscccccccccccccccccccccsssccccccccccccccccccccccsssccccccccccccccccccccccsssccccccccccccssccccccsssssscccccccccccccccc"
     class="ColorScheme-Text"
     style="stroke-width:0.0234377;fill-opacity:1.0;fill:currentColor;" />
  <path
     id="path11"
     style="stroke-width:0.428567;fill-opacity:1.0;fill:currentColor;"
     d="m 6.7142169,5.4702624 c -0.236694,0 -0.428568,0.1918755 -0.428568,0.428567 0,0.2366912 0.191872,0.4285677 0.428568,0.4285677 0.236686,0 0.428566,-0.1918762 0.428566,-0.4285677 0,-0.2366915 -0.191873,-0.428567 -0.428566,-0.428567 z m 2.142834,0 c -0.377102,-0.171244 -0.825932,0.2126575 -0.642852,0.6428509 l 1.07142,1.0714186 -1.07142,1.0714187 c -0.225341,0.40315 0.215278,0.8522534 0.642852,0.6428502 L 10.571322,7.1845319 Z m -2.999971,1.9285532 c -0.236688,0 -0.428565,0.1918756 -0.428565,0.4285671 0,0.2366911 0.191873,0.4285679 0.428565,0.4285679 0.23669,0 0.428569,-0.1918759 0.428569,-0.4285679 0,-0.2366911 -0.191875,-0.4285671 -0.428569,-0.4285671 z m 1.499986,1.928554 c -0.355038,0 -0.642849,0.2878127 -0.642849,0.6428504 0,0.355037 0.287811,0.64285 0.642849,0.64285 0.355037,0 0.642851,-0.287813 0.642851,-0.64285 0,-0.3550377 -0.287814,-0.6428504 -0.642851,-0.6428504 z"
     class="ColorScheme-Text"
     sodipodi:nodetypes="ssssscccccccssssssssss" />
</svg>
