<?xml version="1.0" encoding="UTF-8" standalone="no"?>
<svg
   viewBox="0 0 16 16"
   version="1.1"
   id="svg5"
   sodipodi:docname="folder-network.svg"
   inkscape:version="1.2.2 (b0a8486541, 2022-12-01)"
   xmlns:inkscape="http://www.inkscape.org/namespaces/inkscape"
   xmlns:sodipodi="http://sodipodi.sourceforge.net/DTD/sodipodi-0.dtd"
   xmlns="http://www.w3.org/2000/svg"
   xmlns:svg="http://www.w3.org/2000/svg">
  <sodipodi:namedview
     id="namedview7"
     pagecolor="#ffffff"
     bordercolor="#000000"
     borderopacity="0.25"
     inkscape:showpageshadow="2"
     inkscape:pageopacity="0.0"
     inkscape:pagecheckerboard="0"
     inkscape:deskcolor="#d1d1d1"
     showgrid="false"
     inkscape:zoom="14.75"
     inkscape:cx="2.3050847"
     inkscape:cy="8.0338983"
     inkscape:window-width="1920"
     inkscape:window-height="998"
     inkscape:window-x="0"
     inkscape:window-y="0"
     inkscape:window-maximized="1"
     inkscape:current-layer="svg5" />
  <defs
     id="defs3051">
    <style
       type="text/css"
       id="current-color-scheme">
      .ColorScheme-Text {
        color:#eff0f1;
      }
      </style>
  </defs>
  <path
     style="fill:currentColor;fill-opacity:1;stroke:none;stroke-width:1.16663"
     d="M 8,1 C 4.122,1 1,4.122 1,8 c 0,3.878 3.122,7 7,7 3.878,0 7,-3.122 7,-7 C 15,4.122 11.878,1 8,1 Z M 8,2.1666663 C 11.4902,2.1666663 13.833337,4.5098 13.833337,8 13.833337,11.4902 11.4902,13.833337 8,13.833337 4.5098,13.833337 2.1666663,11.4902 2.1666663,8 2.1666663,4.5098 4.5098,2.1666663 8,2.1666663 Z M 9.75,4.5 A 1.1666663,1.1666663 0 0 0 8.5833337,5.6666663 1.1666663,1.1666663 0 0 0 9.75,6.8333337 1.1666663,1.1666663 0 0 0 10.916663,5.6666663 1.1666663,1.1666663 0 0 0 9.75,4.5 Z M 7.4166663,6.25 A 0.58333337,0.58333337 0 0 0 6.8333337,6.8333337 0.58333337,0.58333337 0 0 0 7.4166663,7.4166663 0.58333337,0.58333337 0 0 0 8,6.8333337 0.58333337,0.58333337 0 0 0 7.4166663,6.25 Z M 5.0833337,6.8333337 A 1.1666663,1.1666663 0 0 0 3.9166663,8 1.1666663,1.1666663 0 0 0 5.0833337,9.166666 1.1666663,1.1666663 0 0 0 6.25,8 1.1666663,1.1666663 0 0 0 5.0833337,6.8333337 Z m 2.3333326,1.75 A 0.58333337,0.58333337 0 0 0 6.8333337,9.166666 0.58333337,0.58333337 0 0 0 7.4166663,9.75 0.58333337,0.58333337 0 0 0 8,9.166666 0.58333337,0.58333337 0 0 0 7.4166663,8.5833337 Z M 9.75,9.166666 A 1.1666663,1.1666663 0 0 0 8.5833337,10.333337 1.1666663,1.1666663 0 0 0 9.75,11.5 1.1666663,1.1666663 0 0 0 10.916663,10.333337 1.1666663,1.1666663 0 0 0 9.75,9.166666 Z"
     id="rect4175"
     class="ColorScheme-Text" />
</svg>
