<?xml version="1.0" encoding="UTF-8" standalone="no"?>
<svg
   viewBox="0 0 16 16"
   version="1.1"
   id="svg6"
   sodipodi:docname="folder-docker.svg"
   inkscape:version="1.2.2 (b0a8486541, 2022-12-01)"
   xmlns:inkscape="http://www.inkscape.org/namespaces/inkscape"
   xmlns:sodipodi="http://sodipodi.sourceforge.net/DTD/sodipodi-0.dtd"
   xmlns="http://www.w3.org/2000/svg"
   xmlns:svg="http://www.w3.org/2000/svg">
  <sodipodi:namedview
     id="namedview8"
     pagecolor="#ffffff"
     bordercolor="#666666"
     borderopacity="1.0"
     inkscape:pageshadow="2"
     inkscape:pageopacity="0.0"
     inkscape:pagecheckerboard="0"
     showgrid="false"
     inkscape:zoom="39.25"
     inkscape:cx="4.1783439"
     inkscape:cy="8.0382166"
     inkscape:window-width="1920"
     inkscape:window-height="998"
     inkscape:window-x="0"
     inkscape:window-y="0"
     inkscape:window-maximized="1"
     inkscape:current-layer="svg6"
     inkscape:showpageshadow="2"
     inkscape:deskcolor="#d1d1d1" />
  <defs
     id="defs3051">
    <style
       type="text/css"
       id="current-color-scheme">
.ColorScheme-Text { 
    color:#eff0f1;
}
      </style>
  </defs>
  <path
     style="fill-opacity:1;fill:currentColor;"
     d="m 4.5,2.5 v 2 h 2 v -2 z m 3,0 v 2 h 2 v -2 z m -5,3 v 2 h 2 v -2 z m 3,0 v 2 h 2 v -2 z m 3,0 v 2 h 2 v -2 z m 3.429688,0.2324219 c -0.531362,0.3641714 -0.659802,1.0239745 -0.494141,1.6464843 0.167498,0.6220507 0.59212,1.0711049 1.234375,1.1210938 0.21463,0.6070664 0.78774,1.014723 1.43164,1.015625 C 14.745456,9.51479 15.320525,9.1070664 15.535156,8.5 15.320525,7.8929252 14.745455,7.4872301 14.101562,7.4863281 c -0.307183,8.352e-4 -0.606591,0.095 -0.859374,0.2695313 C 13.344905,7.4659489 13.3568,7.1506342 13.277344,6.8535156 13.110088,6.2321165 12.57119,5.7832043 11.929688,5.7324219 Z M 12.669922,8.5 H 0.5 c 0,3.360657 2.7233194,5.072266 6.0839844,5.072266 3.3606566,0 6.0859376,-1.711609 6.0859376,-5.072266 z M 3.0214844,9.1738281 c 0.4612882,0 0.8359375,0.3746499 0.8359375,0.8359379 0,0.461288 -0.3746492,0.835937 -0.8359375,0.835937 -0.4612882,0 -0.8359375,-0.374649 -0.8359375,-0.835937 0,-0.461288 0.3746493,-0.8359379 0.8359375,-0.8359379 z"
     class="ColorScheme-Text"
     id="path4" />
</svg>
