<?xml version="1.0" encoding="UTF-8" standalone="no"?>
<svg
   width="16"
   height="16"
   version="1.1"
   viewBox="0 0 16 16"
   id="svg8"
   sodipodi:docname="folder-download.svg"
   inkscape:version="1.2.2 (b0a8486541, 2022-12-01)"
   xmlns:inkscape="http://www.inkscape.org/namespaces/inkscape"
   xmlns:sodipodi="http://sodipodi.sourceforge.net/DTD/sodipodi-0.dtd"
   xmlns="http://www.w3.org/2000/svg"
   xmlns:svg="http://www.w3.org/2000/svg">
  <sodipodi:namedview
     id="namedview10"
     pagecolor="#ffffff"
     bordercolor="#000000"
     borderopacity="0.25"
     inkscape:showpageshadow="2"
     inkscape:pageopacity="0.0"
     inkscape:pagecheckerboard="0"
     inkscape:deskcolor="#d1d1d1"
     showgrid="true"
     inkscape:zoom="22.627417"
     inkscape:cx="4.3752232"
     inkscape:cy="13.191961"
     inkscape:window-width="1920"
     inkscape:window-height="998"
     inkscape:window-x="0"
     inkscape:window-y="0"
     inkscape:window-maximized="1"
     inkscape:current-layer="svg8">
    <inkscape:grid
       type="xygrid"
       id="grid582" />
  </sodipodi:namedview>
  <defs
     id="defs4">
    <style
       type="text/css"
       id="style2">.ColorScheme-Text { color:#d8dee9; }
</style>
  </defs>
  <path
     d="M 8,1 A 7,7 0 0 0 1,8 7,7 0 0 0 8,15 7,7 0 0 0 15,8 7,7 0 0 0 8,1 Z M 8,1.933333 A 6.066667,6.066667 0 0 1 14.06667,8 6.066667,6.066667 0 0 1 8,14.06667 6.066667,6.066667 0 0 1 1.933333,8 6.066667,6.066667 0 0 1 8,1.933333 Z m 0,2.8 C 7.741467,4.733333 7.533333,4.941467 7.533333,5.2 V 9.673467 L 6.35024,8.490373 c -0.182812,-0.182812 -0.477083,-0.182812 -0.659895,0 -0.182812,0.182812 -0.182812,0.477083 0,0.659895 l 1.979694,1.979692 c 0.043878,0.04391 0.096359,0.07848 0.154952,0.10209 0.112317,0.04567 0.237682,0.04567 0.35,0 0.05859,-0.0236 0.111066,-0.05816 0.154952,-0.10209 l 1.979696,-1.979692 c 0.182811,-0.182812 0.182811,-0.477083 0,-0.659895 -0.182817,-0.182812 -0.477086,-0.182812 -0.659898,0 L 8.466648,9.673467 V 5.2 c 0,-0.258533 -0.208133,-0.466667 -0.466667,-0.466667 z"
     fill="currentColor"
     id="path6"
     style="stroke-width:0.93333"
     class="ColorScheme-Text" />
</svg>
