<?xml version="1.0" encoding="UTF-8" standalone="no"?>
<!-- Created with Inkscape (http://www.inkscape.org/) -->

<svg
   width="56"
   height="56"
   viewBox="0 0 56 56"
   version="1.1"
   id="svg5"
   inkscape:version="1.2.2 (b0a8486541, 2022-12-01)"
   sodipodi:docname="user-trash.svg"
   xmlns:inkscape="http://www.inkscape.org/namespaces/inkscape"
   xmlns:sodipodi="http://sodipodi.sourceforge.net/DTD/sodipodi-0.dtd"
   xmlns:xlink="http://www.w3.org/1999/xlink"
   xmlns="http://www.w3.org/2000/svg"
   xmlns:svg="http://www.w3.org/2000/svg">
  <style
     type="text/css"
     id="current-color-scheme">.ColorScheme-Highlight { color:#3daee9; }
</style>
  <sodipodi:namedview
     id="namedview7"
     pagecolor="#ffffff"
     bordercolor="#666666"
     borderopacity="1.0"
     inkscape:pageshadow="2"
     inkscape:pageopacity="0.0"
     inkscape:pagecheckerboard="0"
     inkscape:document-units="px"
     showgrid="false"
     units="px"
     height="64px"
     inkscape:zoom="6.4609375"
     inkscape:cx="-28.633615"
     inkscape:cy="40.474002"
     inkscape:window-width="1920"
     inkscape:window-height="998"
     inkscape:window-x="0"
     inkscape:window-y="0"
     inkscape:window-maximized="1"
     inkscape:current-layer="svg5"
     inkscape:showpageshadow="2"
     inkscape:deskcolor="#d1d1d1">
    <inkscape:grid
       type="xygrid"
       id="grid2703"
       originx="0"
       originy="0" />
  </sodipodi:namedview>
  <defs
     id="defs2">
    <linearGradient
       gradientTransform="matrix(0.66667,0,0,0.66667,-26.641,-25.335)"
       xlink:href="#n"
       id="r"
       x1="127.937"
       y1="160"
       x2="192.189"
       y2="160"
       gradientUnits="userSpaceOnUse" />
    <linearGradient
       id="n">
      <stop
         offset="0"
         stop-color="#fff"
         id="stop282" />
      <stop
         offset=".193"
         stop-color="#e0e0e0"
         stop-opacity=".918"
         id="stop284" />
      <stop
         offset=".493"
         stop-color="#c4c4c4"
         stop-opacity=".896"
         id="stop286" />
      <stop
         offset=".786"
         stop-color="#e0e0e0"
         stop-opacity=".945"
         id="stop288" />
      <stop
         offset="1"
         stop-color="#fff"
         id="stop290" />
    </linearGradient>
    <linearGradient
       xlink:href="#m"
       id="s"
       x1="161"
       y1="126"
       x2="161"
       y2="141"
       gradientUnits="userSpaceOnUse"
       gradientTransform="matrix(0.66667,0,0,0.66667,-26.641,-28.668)" />
    <linearGradient
       id="m">
      <stop
         offset="0"
         stop-color="#a3afbb"
         id="stop293" />
      <stop
         offset="1"
         stop-color="#73787d"
         id="stop295" />
    </linearGradient>
    <radialGradient
       inkscape:collect="always"
       xlink:href="#linearGradient1645"
       id="radialGradient1647"
       cx="84.633064"
       cy="271.15091"
       fx="84.633064"
       fy="271.15091"
       r="28.587233"
       gradientTransform="matrix(0.29676405,-4.7993828e-4,1.484073e-4,0.09182211,-3.123546,25.187846)"
       gradientUnits="userSpaceOnUse" />
    <linearGradient
       inkscape:collect="always"
       id="linearGradient1645">
      <stop
         style="stop-color:#ffffff;stop-opacity:1"
         offset="0"
         id="stop1641" />
      <stop
         style="stop-color:#ffffff;stop-opacity:0"
         offset="1"
         id="stop1643" />
    </linearGradient>
    <radialGradient
       inkscape:collect="always"
       xlink:href="#linearGradient1197"
       id="radialGradient1066"
       cx="122.65781"
       cy="274.84125"
       fx="122.65781"
       fy="274.84125"
       r="13.775231"
       gradientTransform="matrix(0.41802957,0,0,0.21333597,-26.804019,-20.043682)"
       gradientUnits="userSpaceOnUse" />
    <linearGradient
       id="linearGradient1197"
       inkscape:collect="always">
      <stop
         id="stop1193"
         offset="0"
         style="stop-color:#894f00;stop-opacity:0.263" />
      <stop
         id="stop1195"
         offset="1"
         style="stop-color:#ffdfb3;stop-opacity:0;" />
    </linearGradient>
    <radialGradient
       inkscape:collect="always"
       xlink:href="#linearGradient1082"
       id="radialGradient1088"
       gradientUnits="userSpaceOnUse"
       gradientTransform="matrix(1.7222793,2.3617152e-8,1.3145121e-8,1.8288663,-372.46634,-474.68888)"
       cx="230.23975"
       cy="244.85646"
       fx="230.23975"
       fy="244.85646"
       r="3.2001493" />
    <linearGradient
       inkscape:collect="always"
       id="linearGradient1082">
      <stop
         style="stop-color:#393939;stop-opacity:1;"
         offset="0"
         id="stop1078" />
      <stop
         style="stop-color:#393939;stop-opacity:0;"
         offset="1"
         id="stop1080" />
    </linearGradient>
    <radialGradient
       inkscape:collect="always"
       xlink:href="#linearGradient1082"
       id="radialGradient1092"
       gradientUnits="userSpaceOnUse"
       gradientTransform="matrix(0.88571753,0,-1.8105288e-8,1.7937044,-146.55249,-443.55381)"
       cx="230.23975"
       cy="244.85646"
       fx="230.23975"
       fy="244.85646"
       r="3.2001493" />
    <radialGradient
       inkscape:collect="always"
       xlink:href="#linearGradient1082"
       id="radialGradient1100"
       gradientUnits="userSpaceOnUse"
       gradientTransform="matrix(0.68400475,0,1.4411741e-8,1.4019739,-114.61386,-366.21233)"
       cx="230.23975"
       cy="244.85646"
       fx="230.23975"
       fy="244.85646"
       r="3.2001493" />
    <radialGradient
       inkscape:collect="always"
       xlink:href="#linearGradient1082"
       id="radialGradient1618"
       gradientUnits="userSpaceOnUse"
       gradientTransform="matrix(0.88553176,0,-3.916607e-8,1.7941022,-160.3311,-407.46141)"
       cx="230.23975"
       cy="244.85646"
       fx="230.23975"
       fy="244.85646"
       r="3.2001493" />
  </defs>
  <path
     sodipodi:nodetypes="ccccscccc"
     inkscape:connector-curvature="0"
     id="path4147-0-7"
     d="m 27.999998,4.000044 c -10.493293,0 -18.99998,2.12748 -18.999997,4.7515991 l 0.03363,0.272188 c 4.1e-5,1.89e-4 -4.5e-5,2.83e-4 0,5.7e-4 0.566039,2.4970429 8.839746,4.4781839 18.966373,4.4781529 10.128418,3.1e-5 18.403557,-1.98174 18.966996,-4.4794129 L 47,8.7516001 C 46.999986,6.127464 38.493294,4 28,4 Z"
     style="enable-background:accumulate;marker:none;stroke-opacity:1;stroke-dashoffset:0;stroke-dasharray:none;stroke-miterlimit:4;stroke-linejoin:miter;stroke-linecap:round;stroke-width:1.42914;stroke:none;fill-rule:nonzero;fill-opacity:1;fill:currentColor;opacity:0.307971;visibility:visible;overflow:visible;display:inline;"
     class="ColorScheme-Highlight" />
  <path
     sodipodi:nodetypes="ccsccscccc"
     inkscape:connector-curvature="0"
     id="path4147-0-0-0"
     d="m 9,8.7516431 4.54904,37.0442419 c -6e-6,3.426287 6.478625,6.204037 14.470883,6.204037 7.992256,0 14.471512,-2.77775 14.471504,-6.204037 L 46.999996,8.7516431 C 46.9991,11.375622 38.492718,13.502629 27.999998,13.502614 17.507277,13.502629 9.000931,11.375622 9,8.7516431 Z m 37.999996,0 c 0,-0.102997 -0.0178,-0.205097 -0.04358,-0.306441 0.02769,0.102053 0.04224,0.2042 0.04358,0.306441 z"
     style="enable-background:accumulate;marker:none;stroke-opacity:1;stroke-dashoffset:0;stroke-dasharray:none;stroke-miterlimit:4;stroke-linejoin:miter;stroke-linecap:round;stroke-width:1.53523;stroke:none;fill-rule:nonzero;fill-opacity:1;fill:currentColor;visibility:visible;overflow:visible;display:inline;"
     class="ColorScheme-Highlight" />
  <path
     style="opacity:0.424;fill:url(#radialGradient1647);fill-opacity:1;stroke:none;stroke-width:0.0153524;stroke-linecap:round;stroke-linejoin:round;stroke-miterlimit:4;stroke-dasharray:none;stroke-dashoffset:0;stroke-opacity:0.137363;paint-order:fill markers stroke"
     d="m 22.012257,45.795885 a 8.4837065,4.2489669 0 0 0 -7.472203,2.260479 c 2.107717,2.308497 7.348107,3.943637 13.479856,3.943637 0.531353,0 1.055813,-0.0126 1.57233,-0.03654 a 8.4837065,4.2489669 0 0 0 0.924152,-1.918586 v -0.01417 a 8.4837065,4.2489669 0 0 0 -8.504135,-4.235288 z"
     id="path1639"
     inkscape:connector-curvature="0" />
  <path
     style="display:inline;overflow:visible;visibility:visible;opacity:0.279;fill:currentColor;fill-opacity:1;fill-rule:nonzero;stroke:none;stroke-width:1.53523;stroke-linecap:round;stroke-linejoin:miter;stroke-miterlimit:4;stroke-dasharray:none;stroke-dashoffset:0;stroke-opacity:1;marker:none;enable-background:accumulate"
     d="m 9,8.751441 4.549041,37.044242 c -6e-6,3.426287 6.478625,6.204037 14.470883,6.204037 7.992256,0 14.471512,-2.77775 14.471504,-6.204037 L 46.999997,8.751441 C 46.999101,11.37542 38.492719,13.502427 27.999999,13.502412 17.507278,13.502427 9.000931,11.37542 9,8.751441 Z m 37.999997,0 c 0,-0.102997 -0.0178,-0.205097 -0.04358,-0.306441 0.02769,0.102053 0.04224,0.2042 0.04358,0.306441 z"
     id="path1629"
     inkscape:connector-curvature="0"
     sodipodi:nodetypes="ccsccscccc"
     class="ColorScheme-Highlight" />
  <path
     style="opacity:0.308;fill:url(#radialGradient1066);fill-opacity:1;stroke:none;stroke-width:0.0267799;stroke-linecap:round;stroke-linejoin:round;stroke-miterlimit:4;stroke-dasharray:none;stroke-dashoffset:0;stroke-opacity:0.137363;paint-order:fill markers stroke"
     id="path1058"
     sodipodi:type="arc"
     sodipodi:cx="24.470562"
     sodipodi:cy="38.589825"
     sodipodi:rx="5.7584538"
     sodipodi:ry="2.9387522"
     sodipodi:start="0"
     sodipodi:end="6.2799564"
     sodipodi:open="true"
     d="m 30.229016,38.589825 a 5.7584538,2.9387522 0 0 1 -5.753806,2.938751 5.7584538,2.9387522 0 0 1 -5.763094,-2.934007 5.7584538,2.9387522 0 0 1 5.744501,-2.943488 5.7584538,2.9387522 0 0 1 5.772369,2.929255"
     transform="matrix(0.94616509,-0.32368446,0.39826952,0.91726844,0,0)"
     sodipodi:arc-type="arc" />
  <path
     transform="matrix(0.11340361,0.993549,-0.98198458,-0.18896105,0,0)"
     d="m 29.582285,-26.879297 a 5.5115509,5.8526454 0 0 1 -5.507102,5.852643 5.5115509,5.8526454 0 0 1 -5.515993,-5.843194 5.5115509,5.8526454 0 0 1 5.498197,-5.862077 5.5115509,5.8526454 0 0 1 5.524869,5.83373"
     sodipodi:open="true"
     sodipodi:end="6.2799564"
     sodipodi:start="0"
     sodipodi:ry="5.8526454"
     sodipodi:rx="5.5115509"
     sodipodi:cy="-26.879297"
     sodipodi:cx="24.070734"
     sodipodi:type="arc"
     id="path1086"
     style="opacity:0.134;fill:url(#radialGradient1088);fill-opacity:1;stroke:none;stroke-width:0.0615352;stroke-linecap:round;stroke-linejoin:round;stroke-miterlimit:4;stroke-dasharray:none;stroke-dashoffset:0;stroke-opacity:0.137363;paint-order:fill markers stroke"
     sodipodi:arc-type="arc" />
  <path
     style="opacity:0.17;fill:url(#radialGradient1092);fill-opacity:1;stroke:none;stroke-width:0.0437024;stroke-linecap:round;stroke-linejoin:round;stroke-miterlimit:4;stroke-dasharray:none;stroke-dashoffset:0;stroke-opacity:0.137363;paint-order:fill markers stroke"
     id="path1090"
     sodipodi:type="arc"
     sodipodi:cx="57.374866"
     sodipodi:cy="-4.3536758"
     sodipodi:rx="2.8344283"
     sodipodi:ry="5.7401228"
     sodipodi:start="0"
     sodipodi:end="6.2799564"
     sodipodi:open="true"
     d="m 60.209295,-4.3536758 a 2.8344283,5.7401228 0 0 1 -2.83214,5.7401209 2.8344283,5.7401228 0 0 1 -2.836713,-5.7308538 2.8344283,5.7401228 0 0 1 2.82756,-5.7493733 2.8344283,5.7401228 0 0 1 2.841278,5.7215719"
     transform="matrix(0.54119684,0.84089594,-0.8763574,0.4816614,0,0)"
     sodipodi:arc-type="arc" />
  <path
     style="opacity:0.091;fill:url(#radialGradient1100);fill-opacity:1;stroke:none;stroke-width:0.0339533;stroke-linecap:round;stroke-linejoin:round;stroke-miterlimit:4;stroke-dasharray:none;stroke-dashoffset:0;stroke-opacity:0.137363;paint-order:fill markers stroke"
     id="path1098"
     sodipodi:type="arc"
     sodipodi:cx="42.87125"
     sodipodi:cy="-22.929947"
     sodipodi:rx="2.1889174"
     sodipodi:ry="4.4865265"
     sodipodi:start="0"
     sodipodi:end="6.2799564"
     sodipodi:open="true"
     d="m 45.060168,-22.929947 a 2.1889174,4.4865265 0 0 1 -2.187151,4.486525 2.1889174,4.4865265 0 0 1 -2.190681,-4.479282 2.1889174,4.4865265 0 0 1 2.183613,-4.493756 2.1889174,4.4865265 0 0 1 2.194207,4.472027"
     transform="matrix(0.14258757,0.98978219,-0.99869789,0.05101499,0,0)"
     sodipodi:arc-type="arc" />
  <path
     transform="matrix(0.99263869,0.12111326,-0.18973716,0.98183492,0,0)"
     d="m 46.387282,31.836109 a 2.8338339,5.741395 0 0 1 -2.831547,5.741393 2.8338339,5.741395 0 0 1 -2.836118,-5.732124 2.8338339,5.741395 0 0 1 2.826968,-5.750647 2.8338339,5.741395 0 0 1 2.840682,5.72284"
     sodipodi:open="true"
     sodipodi:end="6.2799564"
     sodipodi:start="0"
     sodipodi:ry="5.741395"
     sodipodi:rx="2.8338339"
     sodipodi:cy="31.836109"
     sodipodi:cx="43.553448"
     sodipodi:type="arc"
     id="path1616"
     style="opacity:0.101;fill:url(#radialGradient1618);fill-opacity:1;stroke:none;stroke-width:0.0437026;stroke-linecap:round;stroke-linejoin:round;stroke-miterlimit:4;stroke-dasharray:none;stroke-dashoffset:0;stroke-opacity:0.137363;paint-order:fill markers stroke"
     sodipodi:arc-type="arc" />
</svg>
